<?xml version="1.0" encoding="UTF-8"?>
<svg version="1.1" xmlns="http://www.w3.org/2000/svg" width="192" height="162">
<path d="M0 0 C63.36 0 126.72 0 192 0 C192 53.46 192 106.92 192 162 C128.64 162 65.28 162 0 162 C0 108.54 0 55.08 0 0 Z " fill="#020202" transform="translate(0,0)"/>
<path d="M0 0 C12.99602278 -0.06964468 25.99200083 -0.12288476 38.98817253 -0.15543652 C45.02343229 -0.17106316 51.05856395 -0.1922467 57.09375 -0.22631836 C62.92279436 -0.25901867 68.75171584 -0.27687558 74.58084488 -0.28463173 C76.79988666 -0.29015608 79.01892204 -0.30094367 81.23791122 -0.31719017 C84.35650692 -0.3391061 87.47460087 -0.34196099 90.59326172 -0.34057617 C91.50173355 -0.351362 92.41020538 -0.36214783 93.34620667 -0.3732605 C110.53786359 -0.29116204 126.28089431 9.04208043 138.578125 20.4609375 C147.22710982 29.52842159 154.00669694 41.47974502 154.625 54.1875 C154.23491362 61.96869678 151.23353081 68.17734667 145.6875 73.625 C141.82027766 76.71584816 137.57665264 78.9978551 133.1875 81.25 C132.5483667 81.5795166 131.9092334 81.9090332 131.25073242 82.24853516 C122.01972591 86.7494998 112.91976563 88.54601219 102.6875 88.4375 C101.68565674 88.43065186 100.68381348 88.42380371 99.65161133 88.41674805 C81.80354612 88.0323459 66.19542548 80.69521702 53.29296875 68.42578125 C47.64881055 62.49391483 43.51484426 56.38688815 40 49 C34.28597302 53.06574997 29.13937379 57.50952931 24.03808594 62.30395508 C20.19169371 65.90415314 20.19169371 65.90415314 18 67 C18.36278824 72.49953995 20.55325557 75.46672603 24.25 79.3125 C25.05038696 80.15844727 25.05038696 80.15844727 25.86694336 81.02148438 C34.20279554 89.56011693 43.90470263 95.61047359 55 100 C55.89332031 100.38027344 56.78664062 100.76054688 57.70703125 101.15234375 C64.51668928 103.88984576 70.6944264 104.78633868 78 105 C78.68594238 105.03641602 79.37188477 105.07283203 80.07861328 105.11035156 C94.22542091 105.84501013 108.69245066 104.56718581 121 97 C125.28931609 96.09826878 128.23984367 96.51479383 131.9375 98.875 C134.34050013 101.35081831 134.91052988 102.34388577 135.375 105.75 C134.89009585 109.95250266 132.92682301 112.13258093 130 115 C122.63266388 120.13644557 114.78810669 124.0530143 106 126 C105.07376752 126.2401801 105.07376752 126.2401801 104.12882328 126.48521233 C98.36599808 127.90973445 92.99413363 128.27571999 87.07397461 128.22705078 C86.12656403 128.22734283 85.17915344 128.22763489 84.20303345 128.22793579 C81.1027071 128.22655359 78.00262759 128.21104503 74.90234375 128.1953125 C72.74044425 128.19157842 70.57854304 128.18873331 68.41664124 128.18673706 C62.74988056 128.17913171 57.08322378 128.15951 51.41650391 128.1373291 C45.62468877 128.11680372 39.83285671 128.10772107 34.04101562 128.09765625 C22.69396498 128.07626105 11.34699116 128.04216275 0 128 C-0.1626172 120.16777187 -0.28678204 112.33594339 -0.3626852 104.50244808 C-0.39912741 100.86438561 -0.44850368 97.2274829 -0.52807617 93.59008789 C-0.60447153 90.07569152 -0.64605802 86.56240609 -0.6641407 83.04724312 C-0.68325723 81.06228568 -0.73785167 79.07777178 -0.79307556 77.0934906 C-0.79744906 66.99566973 -0.79744906 66.99566973 3.33496094 62.77807617 C5.16815186 61.279953 5.16815186 61.279953 7 60 C7.83207977 59.36757133 7.83207977 59.36757133 8.68096924 58.72236633 C26.82180442 45.48665855 46.41626265 42.22347769 68.58300781 45.36621094 C84.25078989 48.75022673 99.75656272 61.08113069 109 74 C110.78164709 76.94420726 112.43071421 79.93780958 114 83 C117.95134123 81.37796971 120.75786252 78.64323313 123.8125 75.75 C124.87550645 74.75826109 125.9393051 73.7673706 127.00390625 72.77734375 C127.5158252 72.30022949 128.02774414 71.82311523 128.55517578 71.33154297 C131.29915154 68.80270826 134.14452713 66.4011931 137 64 C134.83872161 59.24518755 131.49998997 55.81686149 128 52 C127.49726563 51.41992188 126.99453125 50.83984375 126.4765625 50.2421875 C118.68875326 41.74280178 107.85577391 35.62423653 97 32 C95.99839844 31.64164063 94.99679688 31.28328125 93.96484375 30.9140625 C77.28559914 25.08562758 58.65599537 24.86487744 42 31 C41.505 31.495 41.505 31.495 41 32 C29.66673024 32.80951927 20.79046081 31.91005569 11.84765625 24.65625 C5.92913541 19.35085289 2.04744947 13.7923518 0 6 C-0.026283 4.00017271 -0.029204 1.99978677 0 0 Z " fill="#FBFBFB" transform="translate(28,20)"/>
<path d="M0 0 C-1.36518076 3.13108623 -2.83217855 4.99383017 -5.4375 7.1875 C-6.13746094 7.78046875 -6.83742187 8.3734375 -7.55859375 8.984375 C-12.02593857 12.67261488 -16.49980605 16.35186483 -21 20 C-20.63721176 25.49953995 -18.44674443 28.46672603 -14.75 32.3125 C-13.94961304 33.15844727 -13.94961304 33.15844727 -13.13305664 34.02148438 C-4.79720446 42.56011693 4.90470263 48.61047359 16 53 C17.33998047 53.57041016 17.33998047 53.57041016 18.70703125 54.15234375 C25.51668928 56.88984576 31.6944264 57.78633868 39 58 C39.68594238 58.03641602 40.37188477 58.07283203 41.07861328 58.11035156 C55.22542091 58.84501013 69.69245066 57.56718581 82 50 C86.28931609 49.09826878 89.23984367 49.51479383 92.9375 51.875 C95.34050013 54.35081831 95.91052988 55.34388577 96.375 58.75 C95.89009585 62.95250266 93.92682301 65.13258093 91 68 C83.63266388 73.13644557 75.78810669 77.0530143 67 79 C66.07376752 79.2401801 66.07376752 79.2401801 65.12882328 79.48521233 C59.36599808 80.90973445 53.99413363 81.27571999 48.07397461 81.22705078 C47.12656403 81.22734283 46.17915344 81.22763489 45.20303345 81.22793579 C42.1027071 81.22655359 39.00262759 81.21104503 35.90234375 81.1953125 C33.74044425 81.19157842 31.57854304 81.18873331 29.41664124 81.18673706 C23.74988056 81.17913171 18.08322378 81.15951 12.41650391 81.1373291 C6.62468877 81.11680372 0.83285671 81.10772107 -4.95898438 81.09765625 C-16.30603502 81.07626105 -27.65300884 81.04216275 -39 81 C-39.1626172 73.16777187 -39.28678204 65.33594339 -39.3626852 57.50244808 C-39.39912741 53.86438561 -39.44850368 50.2274829 -39.52807617 46.59008789 C-39.60447153 43.07569152 -39.64605802 39.56240609 -39.6641407 36.04724312 C-39.68325723 34.06228568 -39.73785167 32.07777178 -39.79307556 30.0934906 C-39.79744908 19.99562145 -39.79744908 19.99562145 -35.66943359 15.78027344 C-33.8387146 14.28338623 -33.8387146 14.28338623 -32 13 C-31.39909546 12.55094803 -30.79819092 12.10189606 -30.17907715 11.63923645 C-28.55559767 10.45180497 -26.89536102 9.37454136 -25.1875 8.3125 C-24.27846924 7.7412439 -24.27846924 7.7412439 -23.35107422 7.15844727 C-15.72607693 2.47319583 -9.08882906 -0.6732466 0 0 Z " fill="#FBFBFB" transform="translate(67,67)"/>
<path d="M0 0 C11.30133386 8.07672716 20.3458869 16.87543638 26.6875 29.25 C30.01509923 27.69805246 32.17330485 25.94378051 34.6875 23.25 C35.3475 23.58 36.0075 23.91 36.6875 24.25 C35.92953125 24.97316406 35.92953125 24.97316406 35.15625 25.7109375 C34.5065625 26.34257813 33.856875 26.97421875 33.1875 27.625 C32.5378125 28.25148437 31.888125 28.87796875 31.21875 29.5234375 C29.46632569 31.11475907 29.46632569 31.11475907 29.6875 33.25 C15.47416987 37.98777671 -2.35908064 34.03827292 -15.5 28 C-29.19968016 20.60082741 -39.68474089 10.63525417 -46.546875 -3.4140625 C-48.17297876 -6.06691323 -48.17297876 -6.06691323 -51.515625 -6.5859375 C-52.43859375 -6.64007813 -53.3615625 -6.69421875 -54.3125 -6.75 C-54.3125 -7.08 -54.3125 -7.41 -54.3125 -7.75 C-35.98587128 -11.92531348 -15.90520313 -10.00327241 0 0 Z " fill="#F4F4F4" transform="translate(115.3125,73.75)"/>
<path d="M0 0 C12.76839841 1.38418478 24.04210052 9.04210052 33 18 C32.89588541 21.01932315 31.81562452 22.22233514 29.875 24.5625 C25.10389352 28.60756854 20.39567039 30.63865298 14.04296875 30.34375 C7.45899228 29.23592987 3.20656546 25.67467842 -0.87109375 20.5859375 C-3.25335254 17.23923484 -3.19503366 14.70167004 -3.25 10.625 C-3.27578125 9.48289062 -3.3015625 8.34078125 -3.328125 7.1640625 C-2.97621427 3.77063765 -2.29582784 2.45291079 0 0 Z " fill="#070707" transform="translate(93,69)"/>
<path d="M0 0 C6.6772895 0.60702632 12.70127996 2.77631394 19 5 C19.33 6.65 19.66 8.3 20 10 C16.5833917 8.8896023 13.18803251 7.72916803 9.8125 6.5 C9.15894531 6.2628125 8.50539063 6.025625 7.83203125 5.78125 C4.64628983 4.42272487 2.35637011 2.46857821 0 0 Z " fill="#DFDFDF" transform="translate(90,65)"/>
<path d="M0 0 C6.625 0.75 6.625 0.75 10 3 C9.34 3 8.68 3 8 3 C8 3.66 8 4.32 8 5 C6.35 4.67 4.7 4.34 3 4 C3 3.34 3 2.68 3 2 C2.01 1.34 1.02 0.68 0 0 Z " fill="#C8C8C8" transform="translate(90,65)"/>
</svg>
